<svg xmlns="http://www.w3.org/2000/svg" viewBox="0 0 1200 675" role="img" aria-label="Illustrated thumbnail for Krish Ashok YouTube channel">
  <defs>
    <linearGradient id="bg" x1="0" x2="1" y1="0" y2="1">
      <stop offset="0%" stop-color="#2a332c"/>
      <stop offset="100%" stop-color="#141a15"/>
    </linearGradient>
    <linearGradient id="accent" x1="0" x2="1" y1="0" y2="0">
      <stop offset="0%" stop-color="#9fb378"/>
      <stop offset="100%" stop-color="#d5d9c8"/>
    </linearGradient>
  </defs>
  <rect width="1200" height="675" rx="36" fill="url(#bg)"/>
  <circle cx="945" cy="208" r="118" fill="#9fb378" opacity=".16"/>
  <circle cx="1038" cy="132" r="48" fill="#d5d9c8" opacity=".09"/>
  <rect x="68" y="74" width="178" height="178" rx="28" fill="#9fb378" opacity=".18" stroke="#9fb378" stroke-opacity=".35"/>
  <circle cx="157" cy="142" r="38" fill="#d5d9c8" opacity=".9"/>
  <rect x="118" y="186" width="78" height="10" rx="5" fill="#d5d9c8" opacity=".9"/>
  <rect x="308" y="95" width="392" height="32" rx="16" fill="#465247"/>
  <rect x="308" y="150" width="292" height="22" rx="11" fill="#465247"/>
  <text x="68" y="360" fill="#d5d9c8" font-family="system-ui, -apple-system, BlinkMacSystemFont, sans-serif" font-size="62" font-weight="700">Krish Ashok</text>
  <text x="68" y="430" fill="#a8b09b" font-family="system-ui, -apple-system, BlinkMacSystemFont, sans-serif" font-size="34">Food, culture, history, and smart explanations.</text>
  <rect x="68" y="490" width="230" height="74" rx="20" fill="#9fb378" opacity=".16" stroke="#9fb378" stroke-opacity=".32"/>
  <polygon points="118,514 118,540 145,527" fill="#d5d9c8"/>
  <text x="164" y="538" fill="#d5d9c8" font-family="system-ui, -apple-system, BlinkMacSystemFont, sans-serif" font-size="28" font-weight="600">YouTube Channel</text>
  <rect x="780" y="366" width="330" height="186" rx="28" fill="#1d2520" stroke="#465247"/>
  <rect x="812" y="398" width="266" height="22" rx="11" fill="url(#accent)" opacity=".9"/>
  <rect x="812" y="438" width="210" height="16" rx="8" fill="#465247"/>
  <rect x="812" y="468" width="170" height="16" rx="8" fill="#465247"/>
  <circle cx="1034" cy="510" r="26" fill="#9fb378" opacity=".2"/>
</svg>