<svg xmlns="http://www.w3.org/2000/svg" viewBox="0 0 800 800" role="img" aria-label="Mock tourist city view scene">
  <linearGradient id="bg" x1="0" x2="0" y1="0" y2="1">
    <stop offset="0%" stop-color="#c8d7ea"/>
    <stop offset="100%" stop-color="#e7d7c7"/>
  </linearGradient>
  <rect width="800" height="800" fill="url(#bg)"/>
  <rect y="520" width="800" height="280" fill="#8d4f45"/>
  <path d="M0 500 C130 430, 230 470, 360 430 C500 390, 620 450, 800 380 L800 540 L0 540 Z" fill="#9ca4a8"/>
  <rect x="315" y="270" width="56" height="250" fill="#efe6d7"/>
  <polygon points="343,170 290,270 396,270" fill="#6a7e8b"/>
  <rect x="334" y="330" width="18" height="190" fill="#917b5b"/>
  <rect x="80" y="450" width="80" height="70" fill="#b8a18d"/>
  <rect x="180" y="425" width="60" height="95" fill="#a68774"/>
  <rect x="470" y="435" width="90" height="85" fill="#bea38b"/>
  <rect x="585" y="410" width="65" height="110" fill="#a88371"/>
  <circle cx="120" cy="120" r="44" fill="#fff2c6" opacity=".8"/>
</svg>