<svg xmlns="http://www.w3.org/2000/svg" viewBox="0 0 800 800" role="img" aria-label="Mock tourist cats scene">
  <rect width="800" height="800" fill="#d7cfc3"/>
  <rect y="430" width="800" height="370" fill="#b99079"/>
  <rect x="0" y="130" width="800" height="240" fill="#c8c0b4"/>
  <rect x="0" y="100" width="800" height="30" fill="#a27f6c"/>
  <ellipse cx="300" cy="430" rx="120" ry="85" fill="#69685f"/>
  <circle cx="230" cy="360" r="52" fill="#69685f"/>
  <polygon points="195,325 218,280 235,330" fill="#69685f"/>
  <polygon points="250,330 270,285 285,340" fill="#69685f"/>
  <ellipse cx="520" cy="410" rx="130" ry="90" fill="#4f4d48"/>
  <circle cx="625" cy="350" r="54" fill="#4f4d48"/>
  <polygon points="595,325 618,280 636,330" fill="#4f4d48"/>
  <polygon points="648,330 670,286 686,341" fill="#4f4d48"/>
  <path d="M410 390 C360 330, 340 290, 330 240" stroke="#69685f" stroke-width="18" fill="none" stroke-linecap="round"/>
  <path d="M675 410 C735 380, 760 345, 770 300" stroke="#4f4d48" stroke-width="18" fill="none" stroke-linecap="round"/>
</svg>