<svg xmlns="http://www.w3.org/2000/svg" viewBox="0 0 960 420" role="img" aria-labelledby="title desc">
  <title id="title">Browser search abstract</title>
  <desc id="desc">Abstract browser window, search bar, result lanes, and browser choice markers in the site color palette.</desc>
  <defs>
    <linearGradient id="bg" x1="0" y1="0" x2="1" y2="1">
      <stop offset="0%" stop-color="#0f1713"/>
      <stop offset="100%" stop-color="#17241e"/>
    </linearGradient>
    <linearGradient id="accent" x1="0" y1="0" x2="1" y2="1">
      <stop offset="0%" stop-color="#86a874"/>
      <stop offset="100%" stop-color="#c1a06a"/>
    </linearGradient>
  </defs>
  <rect width="960" height="420" fill="url(#bg)"/>

  <g opacity=".22" stroke="#2e4036" stroke-width="1">
    <path d="M0 70h960M0 140h960M0 210h960M0 280h960M0 350h960"/>
    <path d="M120 0v420M240 0v420M360 0v420M480 0v420M600 0v420M720 0v420M840 0v420"/>
  </g>

  <rect x="96" y="70" width="768" height="282" rx="16" fill="#121d18" stroke="#324038"/>
  <path d="M96 124h768" stroke="#2d4036" stroke-width="3"/>
  <circle cx="132" cy="98" r="6" fill="#c48f68"/>
  <circle cx="154" cy="98" r="6" fill="#9fb378"/>
  <circle cx="176" cy="98" r="6" fill="#7f9974"/>

  <rect x="244" y="86" width="360" height="24" rx="12" fill="#17241e" stroke="#324038"/>
  <path d="M272 98h214" stroke="#8fa58a" stroke-width="3" stroke-linecap="round" opacity=".78"/>
  <path d="M544 98h36" stroke="#c1a06a" stroke-width="3" stroke-linecap="round"/>

  <g fill="none" stroke="#2d4036" stroke-width="3" opacity=".9">
    <path d="M150 176h322"/>
    <path d="M150 220h252"/>
    <path d="M150 264h302"/>
    <path d="M150 308h206"/>
    <path d="M548 162v158"/>
  </g>

  <g fill="#8fa58a" opacity=".84" font-family="ui-monospace, Menlo, monospace" font-size="18">
    <text x="150" y="166">helium</text>
    <text x="150" y="210">firefox</text>
    <text x="150" y="254">chrome</text>
    <text x="150" y="298">safari</text>
  </g>

  <g fill="none" stroke="url(#accent)" stroke-width="4" stroke-linecap="round" stroke-linejoin="round" opacity=".8">
    <path d="M270 176h100v44h92"/>
    <path d="M248 264h98v-44" opacity=".58"/>
    <path d="M462 220h86"/>
    <path d="M548 220h126v-42h78"/>
  </g>

  <g fill="#9fb378">
    <circle cx="270" cy="176" r="8"/>
    <circle cx="462" cy="220" r="8"/>
    <circle cx="674" cy="178" r="8"/>
  </g>

  <g opacity=".9">
    <circle cx="736" cy="220" r="44" fill="none" stroke="#8daa7f" stroke-width="4"/>
    <path d="M768 252l42 42" stroke="#8daa7f" stroke-width="5" stroke-linecap="round"/>
    <circle cx="736" cy="220" r="8" fill="#c1a06a"/>
  </g>
</svg>
