<svg xmlns="http://www.w3.org/2000/svg" viewBox="0 0 960 420" role="img" aria-label="Checklist cards representing cold cache performance checks">
  <defs>
    <linearGradient id="bg" x1="0" y1="0" x2="1" y2="1">
      <stop offset="0" stop-color="#1b231e" />
      <stop offset="1" stop-color="#141a15" />
    </linearGradient>
    <linearGradient id="card" x1="0" y1="0" x2="0" y2="1">
      <stop offset="0" stop-color="#263128" />
      <stop offset="1" stop-color="#1d2520" />
    </linearGradient>
  </defs>

  <rect width="960" height="420" fill="url(#bg)" />

  <g fill="none" stroke="#2e3a31" stroke-width="1.5" opacity="0.75">
    <path d="M0 84H960" />
    <path d="M0 168H960" />
    <path d="M0 252H960" />
    <path d="M0 336H960" />
    <path d="M120 0V420" />
    <path d="M240 0V420" />
    <path d="M360 0V420" />
    <path d="M480 0V420" />
    <path d="M600 0V420" />
    <path d="M720 0V420" />
    <path d="M840 0V420" />
  </g>

  <g>
    <rect x="92" y="68" width="360" height="118" rx="16" fill="url(#card)" stroke="#465247" />
    <rect x="508" y="68" width="360" height="118" rx="16" fill="url(#card)" stroke="#465247" />
    <rect x="92" y="234" width="360" height="118" rx="16" fill="url(#card)" stroke="#465247" />
    <rect x="508" y="234" width="360" height="118" rx="16" fill="url(#card)" stroke="#465247" />
  </g>

  <g stroke="#9fb378" stroke-width="6" fill="none" stroke-linecap="round" stroke-linejoin="round">
    <path d="M132 124L146 138L176 108" />
    <path d="M548 124L562 138L592 108" />
    <path d="M132 290L146 304L176 274" />
    <path d="M548 290L562 304L592 274" />
  </g>

  <g fill="#7f9974">
    <rect x="202" y="108" width="216" height="10" rx="5" />
    <rect x="202" y="128" width="164" height="10" rx="5" opacity="0.8" />
    <rect x="618" y="108" width="216" height="10" rx="5" />
    <rect x="618" y="128" width="164" height="10" rx="5" opacity="0.8" />
    <rect x="202" y="274" width="216" height="10" rx="5" />
    <rect x="202" y="294" width="164" height="10" rx="5" opacity="0.8" />
    <rect x="618" y="274" width="216" height="10" rx="5" />
    <rect x="618" y="294" width="164" height="10" rx="5" opacity="0.8" />
  </g>

  <circle cx="480" cy="210" r="44" fill="#1d2520" stroke="#8daa7f" stroke-width="4" />
  <path d="M480 184V212L500 224" stroke="#9fb378" stroke-width="6" fill="none" stroke-linecap="round" />
</svg>
