<svg xmlns="http://www.w3.org/2000/svg" viewBox="0 0 960 420" role="img" aria-labelledby="title desc">
  <title id="title">Latency map abstract</title>
  <desc id="desc">Points connected by routes showing network latency concepts.</desc>
  <defs>
    <linearGradient id="bg" x1="0" y1="0" x2="1" y2="1">
      <stop offset="0%" stop-color="#0f1713"/>
      <stop offset="100%" stop-color="#17241e"/>
    </linearGradient>
  </defs>
  <rect width="960" height="420" fill="url(#bg)"/>
  <g stroke="#2d4036" stroke-width="2" opacity=".7">
    <path d="M120 330L260 260L400 300L560 170L760 210L890 110"/>
    <path d="M80 140L200 90L360 120L500 70L700 140L860 80"/>
    <path d="M120 330L80 140M260 260L200 90M400 300L360 120M560 170L500 70M760 210L700 140"/>
  </g>
  <g fill="#9fb378">
    <circle cx="120" cy="330" r="10"/>
    <circle cx="260" cy="260" r="10"/>
    <circle cx="400" cy="300" r="10"/>
    <circle cx="560" cy="170" r="10"/>
    <circle cx="760" cy="210" r="10"/>
    <circle cx="890" cy="110" r="10"/>
  </g>
  <g fill="#c1a06a">
    <circle cx="80" cy="140" r="8"/>
    <circle cx="200" cy="90" r="8"/>
    <circle cx="360" cy="120" r="8"/>
    <circle cx="500" cy="70" r="8"/>
    <circle cx="700" cy="140" r="8"/>
    <circle cx="860" cy="80" r="8"/>
  </g>
  <g fill="#d5d9c8" font-family="ui-monospace, Menlo, monospace" font-size="16" opacity=".86">
    <text x="145" y="326">42ms</text>
    <text x="285" y="256">87ms</text>
    <text x="425" y="296">131ms</text>
    <text x="585" y="166">39ms</text>
    <text x="785" y="206">74ms</text>
  </g>
</svg>
