<svg xmlns="http://www.w3.org/2000/svg" viewBox="0 0 960 420" role="img" aria-label="Layered request waterfall chart with timing bars">
  <defs>
    <linearGradient id="bg" x1="0" y1="0" x2="0" y2="1">
      <stop offset="0" stop-color="#1d2520" />
      <stop offset="1" stop-color="#141a15" />
    </linearGradient>
    <linearGradient id="bar" x1="0" y1="0" x2="1" y2="0">
      <stop offset="0" stop-color="#9fb378" />
      <stop offset="1" stop-color="#7f9974" />
    </linearGradient>
    <pattern id="grid" width="24" height="24" patternUnits="userSpaceOnUse">
      <path d="M24 0H0V24" fill="none" stroke="#2a342d" stroke-width="1" />
    </pattern>
  </defs>

  <rect width="960" height="420" fill="url(#bg)" />
  <rect width="960" height="420" fill="url(#grid)" opacity="0.55" />

  <g opacity="0.7" fill="none" stroke="#465247" stroke-width="2">
    <path d="M96 94H864" />
    <path d="M96 156H864" />
    <path d="M96 218H864" />
    <path d="M96 280H864" />
    <path d="M96 342H864" />
  </g>

  <g fill="#324036">
    <rect x="96" y="76" width="70" height="36" rx="8" />
    <rect x="96" y="138" width="70" height="36" rx="8" />
    <rect x="96" y="200" width="70" height="36" rx="8" />
    <rect x="96" y="262" width="70" height="36" rx="8" />
    <rect x="96" y="324" width="70" height="36" rx="8" />
  </g>

  <g fill="url(#bar)">
    <rect x="188" y="83" width="158" height="22" rx="11" />
    <rect x="352" y="83" width="118" height="22" rx="11" opacity="0.85" />
    <rect x="476" y="83" width="222" height="22" rx="11" opacity="0.75" />

    <rect x="214" y="145" width="122" height="22" rx="11" />
    <rect x="342" y="145" width="178" height="22" rx="11" opacity="0.85" />
    <rect x="526" y="145" width="146" height="22" rx="11" opacity="0.75" />

    <rect x="238" y="207" width="190" height="22" rx="11" />
    <rect x="434" y="207" width="124" height="22" rx="11" opacity="0.85" />
    <rect x="564" y="207" width="248" height="22" rx="11" opacity="0.75" />

    <rect x="192" y="269" width="144" height="22" rx="11" />
    <rect x="342" y="269" width="102" height="22" rx="11" opacity="0.85" />
    <rect x="450" y="269" width="172" height="22" rx="11" opacity="0.75" />

    <rect x="224" y="331" width="130" height="22" rx="11" />
    <rect x="360" y="331" width="214" height="22" rx="11" opacity="0.85" />
    <rect x="580" y="331" width="96" height="22" rx="11" opacity="0.75" />
  </g>

  <g stroke="#8daa7f" stroke-width="2" fill="none" opacity="0.9">
    <path d="M188 66V360" />
    <path d="M344 66V360" />
    <path d="M500 66V360" />
    <path d="M656 66V360" />
    <path d="M812 66V360" />
  </g>
</svg>
