<svg xmlns="http://www.w3.org/2000/svg" viewBox="0 0 960 420" role="img" aria-labelledby="title desc">
  <title id="title">Abstract signal grid</title>
  <desc id="desc">Dark background with soft neon lines and blocks.</desc>
  <defs>
    <linearGradient id="bg" x1="0" y1="0" x2="1" y2="1">
      <stop offset="0%" stop-color="#0d1713"/>
      <stop offset="100%" stop-color="#14231d"/>
    </linearGradient>
    <linearGradient id="line" x1="0" y1="0" x2="1" y2="0">
      <stop offset="0%" stop-color="#86a874"/>
      <stop offset="100%" stop-color="#c1a06a"/>
    </linearGradient>
  </defs>
  <rect width="960" height="420" fill="url(#bg)"/>
  <g opacity=".25" stroke="#2e4036" stroke-width="1">
    <path d="M0 60h960M0 120h960M0 180h960M0 240h960M0 300h960M0 360h960"/>
    <path d="M120 0v420M240 0v420M360 0v420M480 0v420M600 0v420M720 0v420M840 0v420"/>
  </g>
  <g fill="none" stroke="url(#line)" stroke-width="4" stroke-linecap="round">
    <path d="M40 280c120-110 220-8 320-90s200 92 300 8 210-10 260-50"/>
    <path d="M60 340c130-80 220 20 320-70s210 80 300-10 200-8 250-30" opacity=".75"/>
  </g>
  <g fill="#8daa7f">
    <circle cx="110" cy="92" r="8"/>
    <circle cx="360" cy="62" r="8"/>
    <circle cx="680" cy="88" r="8"/>
    <circle cx="860" cy="130" r="8"/>
  </g>
</svg>
