<svg xmlns="http://www.w3.org/2000/svg" viewBox="0 0 960 420" role="img" aria-label="Static asset cache flow with immutable layers and document refresh path">
  <defs>
    <linearGradient id="bg" x1="0" y1="0" x2="0" y2="1">
      <stop offset="0" stop-color="#1c241f" />
      <stop offset="1" stop-color="#141a15" />
    </linearGradient>
    <linearGradient id="cache" x1="0" y1="0" x2="1" y2="0">
      <stop offset="0" stop-color="#9fb378" />
      <stop offset="1" stop-color="#7f9974" />
    </linearGradient>
  </defs>

  <rect width="960" height="420" fill="url(#bg)" />

  <g fill="none" stroke="#2c362f" stroke-width="2" opacity="0.8">
    <path d="M76 82H884" />
    <path d="M76 338H884" />
    <path d="M76 82V338" />
    <path d="M884 82V338" />
  </g>

  <g>
    <rect x="130" y="126" width="220" height="168" rx="14" fill="#1d2520" stroke="#465247" />
    <rect x="190" y="156" width="220" height="168" rx="14" fill="#1f2822" stroke="#465247" />
    <rect x="250" y="186" width="220" height="168" rx="14" fill="#243029" stroke="#465247" />
  </g>

  <g fill="#324036">
    <rect x="280" y="216" width="158" height="18" rx="9" />
    <rect x="280" y="246" width="128" height="18" rx="9" opacity="0.8" />
    <rect x="280" y="276" width="186" height="18" rx="9" opacity="0.65" />
  </g>

  <g>
    <rect x="560" y="112" width="266" height="84" rx="14" fill="#1d2520" stroke="#465247" />
    <rect x="560" y="228" width="266" height="84" rx="14" fill="#1d2520" stroke="#465247" />
    <rect x="584" y="138" width="190" height="14" rx="7" fill="url(#cache)" />
    <rect x="584" y="254" width="128" height="14" rx="7" fill="#8daa7f" />
    <rect x="584" y="162" width="98" height="10" rx="5" fill="#7f9974" opacity="0.75" />
    <rect x="584" y="278" width="164" height="10" rx="5" fill="#7f9974" opacity="0.75" />
  </g>

  <g fill="none" stroke="#9fb378" stroke-width="6" stroke-linecap="round" stroke-linejoin="round">
    <path d="M476 232H536" />
    <path d="M526 220L540 232L526 244" />
    <path d="M694 196V228" />
    <path d="M682 216L694 230L706 216" />
  </g>

  <g fill="#9fb378">
    <rect x="730" y="136" width="74" height="18" rx="9" />
    <rect x="740" y="252" width="74" height="18" rx="9" opacity="0.85" />
  </g>
</svg>
